<svg width="449" height="470" viewBox="0 0 449 470" fill="none" xmlns="http://www.w3.org/2000/svg">
<circle cx="376.133" cy="11.6722" r="9.58784" stroke="white" stroke-width="4.16863"/>
<path d="M107.673 447.711V122.558L227.729 204.263L371.13 19.1758" stroke="white" stroke-width="10.8384"/>
<path d="M145.191 446.043V201.762L239.402 264.291L398.643 65.0308" stroke="white" stroke-width="23.3443"/>
<path d="M291.926 200.094V292.638H402.812" stroke="white" stroke-width="10.8384"/>
<path d="M323.607 158.408V258.455H427.823" stroke="white" stroke-width="10.8384"/>
<circle cx="436.995" cy="257.621" r="9.58784" stroke="white" stroke-width="4.16863"/>
<circle cx="410.315" cy="292.638" r="9.58784" stroke="white" stroke-width="4.16863"/>
<circle cx="107.673" cy="457.715" r="9.58784" stroke="white" stroke-width="4.16863"/>
<path fill-rule="evenodd" clip-rule="evenodd" d="M75.9912 174.62V158.408H84.3285V174.62H75.9912ZM75.9912 207.042V190.831H84.3285V207.042H75.9912ZM75.9912 239.465V223.254H84.3285V239.465H75.9912ZM75.9912 271.887V255.676H84.3285V271.887H75.9912ZM75.9912 304.31V288.099H84.3285V304.31H75.9912ZM75.9912 336.733V320.521H84.3285V336.733H75.9912ZM75.9912 369.155V352.944H84.3285V369.155H75.9912ZM75.9912 401.578V385.367H84.3285V401.578H75.9912Z" fill="white"/>
<path fill-rule="evenodd" clip-rule="evenodd" d="M50.9795 239.465V223.253H59.3167V239.465H50.9795ZM50.9795 271.887V255.676H59.3167V271.887H50.9795ZM50.9795 304.31V288.099H59.3167V304.31H50.9795ZM50.9795 336.733V320.521H59.3167V336.733H50.9795Z" fill="white"/>
<path fill-rule="evenodd" clip-rule="evenodd" d="M25.9678 271.888V255.676H34.305V271.888H25.9678ZM25.9678 304.31V288.099H34.305V304.31H25.9678Z" fill="white"/>
<path fill-rule="evenodd" clip-rule="evenodd" d="M0.956055 271.656V287.867H9.29331V271.656H0.956055Z" fill="white"/>
</svg>
